<?xml version="1.0" encoding="UTF-8" standalone="no"?>
<!DOCTYPE svg PUBLIC "-//W3C//DTD SVG 1.1//EN" "http://www.w3.org/Graphics/SVG/1.1/DTD/svg11.dtd">
<svg version="1.1" xmlns="http://www.w3.org/2000/svg" xmlns:xlink="http://www.w3.org/1999/xlink" preserveAspectRatio="xMidYMid meet" viewBox="0 0 640 640" width="640" height="640"><defs><path d="M485.11 200C493.33 200 500 206.67 500 214.89C500 271.91 500 428.09 500 485.11C500 493.33 493.33 500 485.11 500C428.09 500 271.91 500 214.89 500C206.67 500 200 493.33 200 485.11C200 428.09 200 271.91 200 214.89C200 206.67 206.67 200 214.89 200C271.91 200 428.09 200 485.11 200Z" id="auuGUGzpT"></path><path d="M291.43 251.86C291.43 273.93 273.51 291.86 251.43 291.86C229.35 291.86 211.43 273.93 211.43 251.86C211.43 229.78 229.35 211.86 251.43 211.86C273.51 211.86 291.43 229.78 291.43 251.86Z" id="aiw3jPQfM"></path><path d="M489.52 449.52C489.52 471.59 471.59 489.52 449.52 489.52C427.44 489.52 409.52 471.59 409.52 449.52C409.52 427.44 427.44 409.52 449.52 409.52C471.59 409.52 489.52 427.44 489.52 449.52Z" id="d1aZooniG"></path><path d="M289.1 450.81C289.1 472.88 271.18 490.81 249.1 490.81C227.03 490.81 209.1 472.88 209.1 450.81C209.1 428.73 227.03 410.81 249.1 410.81C271.18 410.81 289.1 428.73 289.1 450.81Z" id="a24j6rCN4o"></path><path d="M493.55 253.35C493.55 275.42 475.63 293.35 453.55 293.35C431.48 293.35 413.55 275.42 413.55 253.35C413.55 231.27 431.48 213.35 453.55 213.35C475.63 213.35 493.55 231.27 493.55 253.35Z" id="b7Yge1tcb"></path><path d="M390.46 253.35C390.46 275.42 372.53 293.35 350.46 293.35C328.38 293.35 310.46 275.42 310.46 253.35C310.46 231.27 328.38 213.35 350.46 213.35C372.53 213.35 390.46 231.27 390.46 253.35Z" id="aDE2uO39"></path><path d="M390.46 450.81C390.46 472.88 372.53 490.81 350.46 490.81C328.38 490.81 310.46 472.88 310.46 450.81C310.46 428.73 328.38 410.81 350.46 410.81C372.53 410.81 390.46 428.73 390.46 450.81Z" id="a1ycBPwxf6"></path></defs><g><g><g><use xlink:href="#auuGUGzpT" opacity="1" fill="#677124" fill-opacity="1"></use><g><use xlink:href="#auuGUGzpT" opacity="1" fill-opacity="0" stroke="#5721c2" stroke-width="2" stroke-opacity="1"></use></g></g><g><use xlink:href="#aiw3jPQfM" opacity="1" fill="#111a36" fill-opacity="1"></use></g><g><use xlink:href="#d1aZooniG" opacity="1" fill="#111a36" fill-opacity="1"></use><g><use xlink:href="#d1aZooniG" opacity="1" fill-opacity="0" stroke="#111a36" stroke-width="2" stroke-opacity="1"></use></g></g><g><use xlink:href="#a24j6rCN4o" opacity="1" fill="#111a36" fill-opacity="1"></use></g><g><use xlink:href="#b7Yge1tcb" opacity="1" fill="#111a36" fill-opacity="1"></use></g><g><use xlink:href="#aDE2uO39" opacity="1" fill="#111a36" fill-opacity="1"></use></g><g><use xlink:href="#a1ycBPwxf6" opacity="1" fill="#111a36" fill-opacity="1"></use></g></g></g></svg>