<?xml version="1.0" encoding="UTF-8" standalone="no"?>
<!DOCTYPE svg PUBLIC "-//W3C//DTD SVG 1.1//EN" "http://www.w3.org/Graphics/SVG/1.1/DTD/svg11.dtd">
<svg version="1.1" xmlns="http://www.w3.org/2000/svg" xmlns:xlink="http://www.w3.org/1999/xlink" preserveAspectRatio="xMidYMid meet" viewBox="0 0 640 640" width="640" height="640"><defs><path d="M475.11 210C483.33 210 490 216.67 490 224.89C490 281.91 490 438.09 490 495.11C490 503.33 483.33 510 475.11 510C418.09 510 261.91 510 204.89 510C196.67 510 190 503.33 190 495.11C190 438.09 190 281.91 190 224.89C190 216.67 196.67 210 204.89 210C261.91 210 418.09 210 475.11 210Z" id="a26LSjyv4S"></path><path d="M380 360C380 382.08 362.08 400 340 400C317.92 400 300 382.08 300 360C300 337.92 317.92 320 340 320C362.08 320 380 337.92 380 360Z" id="c1AcDrku4h"></path></defs><g><g><g><use xlink:href="#a26LSjyv4S" opacity="1" fill="#677124" fill-opacity="1"></use><g><use xlink:href="#a26LSjyv4S" opacity="1" fill-opacity="0" stroke="#5721c2" stroke-width="2" stroke-opacity="1"></use></g></g><g><use xlink:href="#c1AcDrku4h" opacity="1" fill="#111a36" fill-opacity="1"></use><g><use xlink:href="#c1AcDrku4h" opacity="1" fill-opacity="0" stroke="#5721c2" stroke-width="1" stroke-opacity="1"></use></g></g></g></g></svg>